<mxfile host="app.diagrams.net" modified="2024-07-23T02:40:57.831Z" agent="Mozilla/5.0 (Macintosh; Intel Mac OS X 10_15_7) AppleWebKit/537.36 (KHTML, like Gecko) Chrome/126.0.0.0 Safari/537.36" etag="BBPjKgD7ITOhhg8mBh4n" version="24.6.4" type="github">
  <diagram id="C5RBs43oDa-KdzZeNtuy" name="Page-1">
    <mxGraphModel dx="954" dy="461" grid="1" gridSize="10" guides="1" tooltips="1" connect="1" arrows="1" fold="1" page="1" pageScale="1" pageWidth="827" pageHeight="1169" math="0" shadow="0">
      <root>
        <mxCell id="WIyWlLk6GJQsqaUBKTNV-0" />
        <mxCell id="WIyWlLk6GJQsqaUBKTNV-1" parent="WIyWlLk6GJQsqaUBKTNV-0" />
        <mxCell id="XF3gt5a3Qcc0OG9zqgV2-21" style="edgeStyle=none;rounded=0;orthogonalLoop=1;jettySize=auto;html=1;entryX=0.5;entryY=0;entryDx=0;entryDy=0;" edge="1" parent="WIyWlLk6GJQsqaUBKTNV-1" source="XF3gt5a3Qcc0OG9zqgV2-0" target="XF3gt5a3Qcc0OG9zqgV2-5">
          <mxGeometry relative="1" as="geometry">
            <Array as="points">
              <mxPoint x="407" y="180" />
              <mxPoint x="203" y="180" />
            </Array>
          </mxGeometry>
        </mxCell>
        <mxCell id="XF3gt5a3Qcc0OG9zqgV2-22" style="edgeStyle=none;rounded=0;orthogonalLoop=1;jettySize=auto;html=1;entryX=0.5;entryY=0;entryDx=0;entryDy=0;exitX=0.5;exitY=1;exitDx=0;exitDy=0;" edge="1" parent="WIyWlLk6GJQsqaUBKTNV-1" source="XF3gt5a3Qcc0OG9zqgV2-0" target="XF3gt5a3Qcc0OG9zqgV2-3">
          <mxGeometry relative="1" as="geometry">
            <Array as="points">
              <mxPoint x="407" y="180" />
              <mxPoint x="593" y="180" />
            </Array>
          </mxGeometry>
        </mxCell>
        <mxCell id="XF3gt5a3Qcc0OG9zqgV2-0" value="爱山东”我要吐槽“后台管理系统" style="rounded=0;whiteSpace=wrap;html=1;" vertex="1" parent="WIyWlLk6GJQsqaUBKTNV-1">
          <mxGeometry x="320" y="90" width="174" height="60" as="geometry" />
        </mxCell>
        <mxCell id="XF3gt5a3Qcc0OG9zqgV2-23" style="edgeStyle=none;rounded=0;orthogonalLoop=1;jettySize=auto;html=1;entryX=0.5;entryY=0;entryDx=0;entryDy=0;exitX=0.5;exitY=1;exitDx=0;exitDy=0;" edge="1" parent="WIyWlLk6GJQsqaUBKTNV-1" source="XF3gt5a3Qcc0OG9zqgV2-3" target="XF3gt5a3Qcc0OG9zqgV2-13">
          <mxGeometry relative="1" as="geometry" />
        </mxCell>
        <mxCell id="XF3gt5a3Qcc0OG9zqgV2-24" style="edgeStyle=none;rounded=0;orthogonalLoop=1;jettySize=auto;html=1;entryX=0.5;entryY=0;entryDx=0;entryDy=0;" edge="1" parent="WIyWlLk6GJQsqaUBKTNV-1" source="XF3gt5a3Qcc0OG9zqgV2-3" target="XF3gt5a3Qcc0OG9zqgV2-17">
          <mxGeometry relative="1" as="geometry" />
        </mxCell>
        <mxCell id="XF3gt5a3Qcc0OG9zqgV2-3" value="配置管理" style="rounded=0;whiteSpace=wrap;html=1;" vertex="1" parent="WIyWlLk6GJQsqaUBKTNV-1">
          <mxGeometry x="510" y="220" width="166" height="50" as="geometry" />
        </mxCell>
        <mxCell id="XF3gt5a3Qcc0OG9zqgV2-5" value="反馈处理" style="rounded=0;whiteSpace=wrap;html=1;" vertex="1" parent="WIyWlLk6GJQsqaUBKTNV-1">
          <mxGeometry x="120" y="220" width="166" height="50" as="geometry" />
        </mxCell>
        <mxCell id="XF3gt5a3Qcc0OG9zqgV2-13" value="帮&lt;div&gt;助&lt;/div&gt;&lt;div&gt;中&lt;/div&gt;&lt;div&gt;心&lt;/div&gt;" style="rounded=0;whiteSpace=wrap;html=1;" vertex="1" parent="WIyWlLk6GJQsqaUBKTNV-1">
          <mxGeometry x="480" y="340" width="50" height="150" as="geometry" />
        </mxCell>
        <mxCell id="XF3gt5a3Qcc0OG9zqgV2-15" value="系&lt;div&gt;统&lt;/div&gt;&lt;div&gt;反&lt;/div&gt;&lt;div&gt;馈&lt;/div&gt;&lt;div&gt;回&lt;/div&gt;&lt;div&gt;复&lt;/div&gt;&lt;div&gt;库&lt;/div&gt;" style="rounded=0;whiteSpace=wrap;html=1;" vertex="1" parent="WIyWlLk6GJQsqaUBKTNV-1">
          <mxGeometry x="650" y="340" width="50" height="150" as="geometry" />
        </mxCell>
        <mxCell id="XF3gt5a3Qcc0OG9zqgV2-17" value="反&lt;div&gt;馈&lt;/div&gt;&lt;div&gt;类&lt;/div&gt;&lt;div&gt;型&lt;/div&gt;&lt;div&gt;管&lt;/div&gt;&lt;div&gt;理&lt;/div&gt;" style="rounded=0;whiteSpace=wrap;html=1;" vertex="1" parent="WIyWlLk6GJQsqaUBKTNV-1">
          <mxGeometry x="568" y="340" width="50" height="150" as="geometry" />
        </mxCell>
        <mxCell id="XF3gt5a3Qcc0OG9zqgV2-25" style="edgeStyle=none;rounded=0;orthogonalLoop=1;jettySize=auto;html=1;entryX=0.5;entryY=0;entryDx=0;entryDy=0;exitX=0.5;exitY=1;exitDx=0;exitDy=0;" edge="1" parent="WIyWlLk6GJQsqaUBKTNV-1" source="XF3gt5a3Qcc0OG9zqgV2-3" target="XF3gt5a3Qcc0OG9zqgV2-15">
          <mxGeometry relative="1" as="geometry">
            <mxPoint x="603" y="280" as="sourcePoint" />
            <mxPoint x="603" y="350" as="targetPoint" />
          </mxGeometry>
        </mxCell>
      </root>
    </mxGraphModel>
  </diagram>
</mxfile>
